<?xml version="1.0" standalone="no"?>
<!DOCTYPE svg PUBLIC "-//W3C//DTD SVG 20010904//EN"
 "http://www.w3.org/TR/2001/REC-SVG-20010904/DTD/svg10.dtd">
<svg version="1.0" xmlns="http://www.w3.org/2000/svg"
 width="360.000000pt" height="360.000000pt" viewBox="0 0 360.000000 360.000000"
 preserveAspectRatio="xMidYMid meet">
<metadata>
Created by potrace 1.14, written by Peter Selinger 2001-2017
</metadata>
<g transform="translate(0.000000,360.000000) scale(0.100000,-0.100000)"
fill="#000000" stroke="none">
<path d="M1635 2871 c-279 -45 -541 -207 -716 -441 -59 -80 -134 -240 -166
-355 -25 -91 -27 -115 -27 -275 0 -160 2 -184 27 -275 32 -115 107 -275 166
-355 152 -203 366 -350 608 -417 89 -25 113 -27 273 -27 160 0 184 2 275 27
113 31 274 107 356 167 75 56 183 163 241 240 67 88 141 243 175 365 25 91 27
115 27 275 0 160 -2 184 -27 275 -53 193 -151 359 -293 497 -95 93 -161 140
-278 198 -153 75 -259 100 -441 105 -82 2 -172 0 -200 -4z"/>
</g>
</svg>
